<?xml version="1.0" encoding="utf-8"?>
<!DOCTYPE svg PUBLIC "-//W3C//DTD SVG 1.1//EN" "http://www.w3.org/Graphics/SVG/1.1/DTD/svg11.dtd">
<svg version="1.1" id="navigation-icon" xmlns="http://www.w3.org/2000/svg" xmlns:xlink="http://www.w3.org/1999/xlink" x="0px"
	 y="0px" width="27px" height="21px" viewBox="0 0 27 21" enable-background="new 0 0 27 21" xml:space="preserve">
<path fill="#E5E5E5" d="M26.354,2.883c0,1.151-0.975,2.086-2.177,2.086h-21.5C1.475,4.969,0.5,4.034,0.5,2.883V2.674
	c0-1.152,0.975-2.086,2.177-2.086h21.499c1.203,0,2.178,0.934,2.178,2.086V2.883L26.354,2.883z"/>
<path fill="#E5E5E5" d="M26.354,10.55c0,1.152-0.975,2.087-2.177,2.087h-21.5c-1.203,0-2.177-0.935-2.177-2.087v-0.208
	c0-1.152,0.975-2.087,2.177-2.087h21.499c1.203,0,2.178,0.935,2.178,2.087V10.55L26.354,10.55z"/>
<path fill="#E5E5E5" d="M26.354,18.218c0,1.152-0.975,2.086-2.177,2.086h-21.5c-1.203,0-2.177-0.934-2.177-2.086V18.01
	c0-1.152,0.975-2.087,2.177-2.087h21.499c1.203,0,2.178,0.935,2.178,2.087V18.218L26.354,18.218z"/>
</svg>
